<?xml version="1.0" encoding="UTF-8"?>
<svg xmlns="http://www.w3.org/2000/svg" viewBox="0 0 1 1" preserveAspectRatio="xMidYMid meet">
  <defs>
    <pattern id="chk-hanna" width="0.04" height="0.04" patternUnits="userSpaceOnUse">
      <rect width="0.04" height="0.04" fill="#dcdcdc"/>
      <rect width="0.02" height="0.02" fill="#efefef"/>
      <rect x="0.02" y="0.02" width="0.02" height="0.02" fill="#efefef"/>
    </pattern>
  </defs>
  <rect width="1" height="1" fill="url(#chk-hanna)"/>
  <text x="0.03" y="0.05" fill="#555" font-family="JetBrains Mono,monospace" font-size="0.035" font-weight="bold">阪奈 府道8号</text>
  <polyline points="0.482,0.4473 0.4906,0.4473 0.4991,0.4473 0.5077,0.4473 0.5162,0.4473 0.5246,0.4474 0.5307,0.4502 0.5367,0.453 0.5427,0.4558 0.5488,0.4586 0.5548,0.4614 0.5609,0.4641 0.5669,0.4669 0.5729,0.4697 0.579,0.4725 0.585,0.4753 0.5881,0.4787 0.592,0.4819 0.5962,0.485 0.6002,0.4882 0.6004,0.4921 0.6033,0.4955 0.6047,0.4992 0.6064,0.5028 0.6089,0.5063 0.6089,0.5102 0.6126,0.5134 0.6131,0.5173 0.6131,0.5212 0.6158,0.5247 0.6173,0.5283 0.6216,0.5314 0.6219,0.5353 0.6258,0.5385 0.63,0.5417 0.6341,0.5448 0.6371,0.5482 0.6432,0.551 0.6469,0.5542 0.6512,0.5573 0.6523,0.5611 0.6554,0.5644 0.6554,0.5684 0.6596,0.5715 0.6596,0.5755 0.6596,0.5794 0.6596,0.5834 0.6617,0.5869 0.6638,0.5904 0.6638,0.5944 0.6638,0.5983 0.6638,0.6023 0.668,0.6054 0.6681,0.6094 0.6681,0.6133 0.6681,0.6172 0.6681,0.6212 0.6681,0.6251 0.6681,0.6291 0.6681,0.633 0.6685,0.6369 0.6723,0.6401 0.6746,0.6436 0.6776,0.647 0.6837,0.6498 0.6897,0.6526 0.6957,0.6554 0.7018,0.6581 0.7061,0.6613 0.7104,0.6644 0.7139,0.6677 0.717,0.671 0.7188,0.6746 0.7188,0.6786 0.7188,0.6825 0.7188,0.6865 0.7188,0.6904 0.7188,0.6943 0.7188,0.6983 0.7188,0.7022 0.7188,0.7062 0.7188,0.7101 0.7188,0.7141 0.7188,0.718 0.7188,0.722 0.7188,0.7259 0.7188,0.7299 0.7188,0.7338 0.7198,0.7373 0.7283,0.7373 0.7369,0.7373 0.7454,0.7373 0.7523,0.7355 0.7584,0.7327 0.7644,0.7299 0.7704,0.7271 0.7765,0.7243 0.7822,0.7215 0.7822,0.7175 0.7822,0.7136 0.7822,0.7097 0.7822,0.7057 0.7822,0.7018 0.7822,0.6978 0.7822,0.6939 0.7822,0.6899 0.7822,0.686 0.7822,0.682 0.7822,0.6781 0.7822,0.6741 0.7822,0.6702 0.7822,0.6663 0.7822,0.6623 0.7822,0.6584 0.7822,0.6544 0.7822,0.6505 0.7822,0.6465 0.7822,0.6426 0.7822,0.6386 0.7822,0.6347 0.7822,0.6307 0.7822,0.6268 0.7822,0.6228 0.7822,0.6189 0.7822,0.615 0.7822,0.611 0.7822,0.6071 0.7822,0.6031 0.7822,0.5992 0.7822,0.5952 0.7822,0.5913 0.7822,0.5873 0.7846,0.5839 0.7865,0.5803 0.7907,0.5771 0.7907,0.5732 0.7939,0.5698 0.7949,0.5661 0.7949,0.5621 0.7949,0.5582 0.7949,0.5543 0.7949,0.5503 0.8002,0.5474 0.8062,0.5446 0.8123,0.5418 0.8183,0.539 0.8244,0.5362 0.8316,0.5348 0.8396,0.5342 0.8482,0.5342 0.856,0.5333 0.8635,0.5322 0.872,0.5322 0.879,0.5305 0.8874,0.5303 0.8948,0.5291 0.9027,0.5283 0.9094,0.5262 0.9154,0.5234 0.9215,0.5207 0.9275,0.5179 0.9335,0.5151 0.9396,0.5123 0.9456,0.5095 0.9517,0.5067 0.9556,0.5035 0.9556,0.4996 0.9556,0.4956 0.9556,0.4917 0.9556,0.4877 0.9556,0.4838 0.9546,0.48 0.9486,0.4772 0.9426,0.4744 0.9365,0.4717 0.9305,0.4689 0.9244,0.4661 0.9184,0.4633 0.9124,0.4605 0.9063,0.4577 0.9003,0.4549 0.8942,0.4521 0.8882,0.4493 0.8822,0.4465 0.8761,0.4437 0.8701,0.441 0.8668,0.4382 0.8668,0.4343 0.8668,0.4303 0.8668,0.4264 0.8668,0.4224 0.8668,0.4185 0.8668,0.4145 0.8645,0.411 0.8605,0.4079 0.8605,0.4039 0.8553,0.4009 0.8493,0.3982 0.8432,0.3954 0.8609,0.3647" fill="none" stroke="rgba(50,50,55,0.4)" stroke-width="0.014" stroke-linecap="round" stroke-linejoin="round" transform="translate(0.004,0.006)"/>
  <polyline points="0.482,0.4473 0.4906,0.4473 0.4991,0.4473 0.5077,0.4473 0.5162,0.4473 0.5246,0.4474 0.5307,0.4502 0.5367,0.453 0.5427,0.4558 0.5488,0.4586 0.5548,0.4614 0.5609,0.4641 0.5669,0.4669 0.5729,0.4697 0.579,0.4725 0.585,0.4753 0.5881,0.4787 0.592,0.4819 0.5962,0.485 0.6002,0.4882 0.6004,0.4921 0.6033,0.4955 0.6047,0.4992 0.6064,0.5028 0.6089,0.5063 0.6089,0.5102 0.6126,0.5134 0.6131,0.5173 0.6131,0.5212 0.6158,0.5247 0.6173,0.5283 0.6216,0.5314 0.6219,0.5353 0.6258,0.5385 0.63,0.5417 0.6341,0.5448 0.6371,0.5482 0.6432,0.551 0.6469,0.5542 0.6512,0.5573 0.6523,0.5611 0.6554,0.5644 0.6554,0.5684 0.6596,0.5715 0.6596,0.5755 0.6596,0.5794 0.6596,0.5834 0.6617,0.5869 0.6638,0.5904 0.6638,0.5944 0.6638,0.5983 0.6638,0.6023 0.668,0.6054 0.6681,0.6094 0.6681,0.6133 0.6681,0.6172 0.6681,0.6212 0.6681,0.6251 0.6681,0.6291 0.6681,0.633 0.6685,0.6369 0.6723,0.6401 0.6746,0.6436 0.6776,0.647 0.6837,0.6498 0.6897,0.6526 0.6957,0.6554 0.7018,0.6581 0.7061,0.6613 0.7104,0.6644 0.7139,0.6677 0.717,0.671 0.7188,0.6746 0.7188,0.6786 0.7188,0.6825 0.7188,0.6865 0.7188,0.6904 0.7188,0.6943 0.7188,0.6983 0.7188,0.7022 0.7188,0.7062 0.7188,0.7101 0.7188,0.7141 0.7188,0.718 0.7188,0.722 0.7188,0.7259 0.7188,0.7299 0.7188,0.7338 0.7198,0.7373 0.7283,0.7373 0.7369,0.7373 0.7454,0.7373 0.7523,0.7355 0.7584,0.7327 0.7644,0.7299 0.7704,0.7271 0.7765,0.7243 0.7822,0.7215 0.7822,0.7175 0.7822,0.7136 0.7822,0.7097 0.7822,0.7057 0.7822,0.7018 0.7822,0.6978 0.7822,0.6939 0.7822,0.6899 0.7822,0.686 0.7822,0.682 0.7822,0.6781 0.7822,0.6741 0.7822,0.6702 0.7822,0.6663 0.7822,0.6623 0.7822,0.6584 0.7822,0.6544 0.7822,0.6505 0.7822,0.6465 0.7822,0.6426 0.7822,0.6386 0.7822,0.6347 0.7822,0.6307 0.7822,0.6268 0.7822,0.6228 0.7822,0.6189 0.7822,0.615 0.7822,0.611 0.7822,0.6071 0.7822,0.6031 0.7822,0.5992 0.7822,0.5952 0.7822,0.5913 0.7822,0.5873 0.7846,0.5839 0.7865,0.5803 0.7907,0.5771 0.7907,0.5732 0.7939,0.5698 0.7949,0.5661 0.7949,0.5621 0.7949,0.5582 0.7949,0.5543 0.7949,0.5503 0.8002,0.5474 0.8062,0.5446 0.8123,0.5418 0.8183,0.539 0.8244,0.5362 0.8316,0.5348 0.8396,0.5342 0.8482,0.5342 0.856,0.5333 0.8635,0.5322 0.872,0.5322 0.879,0.5305 0.8874,0.5303 0.8948,0.5291 0.9027,0.5283 0.9094,0.5262 0.9154,0.5234 0.9215,0.5207 0.9275,0.5179 0.9335,0.5151 0.9396,0.5123 0.9456,0.5095 0.9517,0.5067 0.9556,0.5035 0.9556,0.4996 0.9556,0.4956 0.9556,0.4917 0.9556,0.4877 0.9556,0.4838 0.9546,0.48 0.9486,0.4772 0.9426,0.4744 0.9365,0.4717 0.9305,0.4689 0.9244,0.4661 0.9184,0.4633 0.9124,0.4605 0.9063,0.4577 0.9003,0.4549 0.8942,0.4521 0.8882,0.4493 0.8822,0.4465 0.8761,0.4437 0.8701,0.441 0.8668,0.4382 0.8668,0.4343 0.8668,0.4303 0.8668,0.4264 0.8668,0.4224 0.8668,0.4185 0.8668,0.4145 0.8645,0.411 0.8605,0.4079 0.8605,0.4039 0.8553,0.4009 0.8493,0.3982 0.8432,0.3954 0.8609,0.3647" fill="none" stroke="#ffffff" stroke-width="0.012" stroke-linecap="round" stroke-linejoin="round"/>
  <circle cx="0.482" cy="0.4473" r="0.012" fill="#e02020"/>
  <text x="0.5" y="0.4523" fill="#e02020" font-family="Hiragino Sans,Yu Gothic,sans-serif" font-size="0.028" font-weight="bold">S</text>
  <circle cx="0.595" cy="0.515" r="0.012" fill="#e02020"/>
  <text x="0.613" y="0.52" fill="#e02020" font-family="Hiragino Sans,Yu Gothic,sans-serif" font-size="0.028" font-weight="bold">中垣内</text>
  <circle cx="0.718" cy="0.738" r="0.012" fill="#e02020"/>
  <text x="0.736" y="0.743" fill="#e02020" font-family="Hiragino Sans,Yu Gothic,sans-serif" font-size="0.028" font-weight="bold">南ループ</text>
  <circle cx="0.84" cy="0.534" r="0.012" fill="#e02020"/>
  <text x="0.858" y="0.539" fill="#e02020" font-family="Hiragino Sans,Yu Gothic,sans-serif" font-size="0.028" font-weight="bold">府道8号</text>
  <circle cx="0.8609" cy="0.3647" r="0.012" fill="#e02020"/>
  <text x="0.8789" y="0.36970000000000003" fill="#e02020" font-family="Hiragino Sans,Yu Gothic,sans-serif" font-size="0.028" font-weight="bold">F</text>
</svg>
