<?xml version="1.0" encoding="UTF-8"?>
<svg xmlns="http://www.w3.org/2000/svg" viewBox="0 0 1 1" preserveAspectRatio="xMidYMid meet">
  <defs>
    <pattern id="chk-minoo" width="0.04" height="0.04" patternUnits="userSpaceOnUse">
      <rect width="0.04" height="0.04" fill="#dcdcdc"/>
      <rect width="0.02" height="0.02" fill="#efefef"/>
      <rect x="0.02" y="0.02" width="0.02" height="0.02" fill="#efefef"/>
    </pattern>
  </defs>
  <rect width="1" height="1" fill="url(#chk-minoo)"/>
  <text x="0.03" y="0.05" fill="#555" font-family="JetBrains Mono,monospace" font-size="0.035" font-weight="bold">箕面</text>
  <polyline points="0.1036,0.1895 0.1174,0.1948 0.1305,0.2009 0.1471,0.2031 0.164,0.2051 0.1809,0.207 0.1995,0.207 0.2181,0.207 0.2367,0.207 0.2548,0.2075 0.2721,0.209 0.2886,0.2114 0.3042,0.2147 0.3209,0.2168 0.336,0.2207 0.3511,0.2247 0.3655,0.2294 0.3763,0.2359 0.3858,0.2427 0.389,0.2506 0.3883,0.2591 0.3784,0.2658 0.374,0.2735 0.3668,0.2808 0.3596,0.288 0.3524,0.2952 0.3423,0.3019 0.3351,0.3091 0.3277,0.3163 0.3207,0.3235 0.315,0.331 0.3161,0.3394 0.3171,0.3478 0.315,0.356 0.31,0.3636 0.3066,0.3716 0.3023,0.3793 0.3023,0.3879 0.3023,0.3965 0.3051,0.4046 0.3087,0.4125 0.3066,0.4207 0.3042,0.4288 0.3023,0.4371 0.3023,0.4457 0.3115,0.4525 0.3261,0.457 0.3447,0.457 0.3633,0.457 0.3801,0.459 0.397,0.4609 0.414,0.4627 0.4307,0.4648 0.4458,0.4688 0.4609,0.4727 0.4711,0.4793 0.4812,0.486 0.4905,0.4928 0.5016,0.4993 0.5147,0.5053 0.5291,0.51 0.5444,0.5137 0.5613,0.5156 0.5781,0.5176 0.5968,0.5176 0.6154,0.5176 0.634,0.5176 0.6509,0.5175 0.6581,0.5247 0.6623,0.5325 0.6681,0.54 0.6796,0.5463 0.696,0.5488 0.7146,0.5488 0.7321,0.5476 0.7492,0.5459 0.766,0.5439 0.7829,0.542 0.7997,0.54 0.8161,0.5417 0.8154,0.5501 0.801,0.5548 0.7858,0.5586 0.7752,0.5648 0.762,0.5709 0.7489,0.5769 0.7357,0.583 0.7213,0.5877 0.7081,0.5938 0.693,0.5977 0.6779,0.6016 0.6625,0.6051 0.6469,0.6084 0.6291,0.6094 0.6119,0.6109 0.5975,0.6156 0.5941,0.6235 0.5941,0.6321 0.5941,0.6407 0.5969,0.6488 0.6089,0.6551 0.6173,0.6621 0.6216,0.6698 0.63,0.6768 0.63,0.6854 0.6245,0.693 0.6152,0.6998 0.6072,0.7068 0.6025,0.7145 0.5983,0.7223 0.5941,0.7301 0.5941,0.7387 0.5974,0.7467 0.6004,0.7547 0.6058,0.7622 0.6131,0.7694 0.6171,0.7773 0.6173,0.7858 0.6225,0.7934 0.6398,0.7949 0.6563,0.7973 0.6681,0.8036 0.6765,0.8106 0.6838,0.8178 0.6934,0.8245 0.7041,0.8311 0.7185,0.8358 0.7315,0.8317 0.7357,0.8239 0.7389,0.8159 0.7442,0.8083 0.7484,0.8006 0.7514,0.7925 0.7586,0.7853 0.7658,0.7781 0.7738,0.771 0.778,0.7633 0.778,0.7547 0.778,0.7461 0.7822,0.7383" fill="none" stroke="rgba(50,50,55,0.4)" stroke-width="0.014" stroke-linecap="round" stroke-linejoin="round" transform="translate(0.004,0.006)"/>
  <polyline points="0.1036,0.1895 0.1174,0.1948 0.1305,0.2009 0.1471,0.2031 0.164,0.2051 0.1809,0.207 0.1995,0.207 0.2181,0.207 0.2367,0.207 0.2548,0.2075 0.2721,0.209 0.2886,0.2114 0.3042,0.2147 0.3209,0.2168 0.336,0.2207 0.3511,0.2247 0.3655,0.2294 0.3763,0.2359 0.3858,0.2427 0.389,0.2506 0.3883,0.2591 0.3784,0.2658 0.374,0.2735 0.3668,0.2808 0.3596,0.288 0.3524,0.2952 0.3423,0.3019 0.3351,0.3091 0.3277,0.3163 0.3207,0.3235 0.315,0.331 0.3161,0.3394 0.3171,0.3478 0.315,0.356 0.31,0.3636 0.3066,0.3716 0.3023,0.3793 0.3023,0.3879 0.3023,0.3965 0.3051,0.4046 0.3087,0.4125 0.3066,0.4207 0.3042,0.4288 0.3023,0.4371 0.3023,0.4457 0.3115,0.4525 0.3261,0.457 0.3447,0.457 0.3633,0.457 0.3801,0.459 0.397,0.4609 0.414,0.4627 0.4307,0.4648 0.4458,0.4688 0.4609,0.4727 0.4711,0.4793 0.4812,0.486 0.4905,0.4928 0.5016,0.4993 0.5147,0.5053 0.5291,0.51 0.5444,0.5137 0.5613,0.5156 0.5781,0.5176 0.5968,0.5176 0.6154,0.5176 0.634,0.5176 0.6509,0.5175 0.6581,0.5247 0.6623,0.5325 0.6681,0.54 0.6796,0.5463 0.696,0.5488 0.7146,0.5488 0.7321,0.5476 0.7492,0.5459 0.766,0.5439 0.7829,0.542 0.7997,0.54 0.8161,0.5417 0.8154,0.5501 0.801,0.5548 0.7858,0.5586 0.7752,0.5648 0.762,0.5709 0.7489,0.5769 0.7357,0.583 0.7213,0.5877 0.7081,0.5938 0.693,0.5977 0.6779,0.6016 0.6625,0.6051 0.6469,0.6084 0.6291,0.6094 0.6119,0.6109 0.5975,0.6156 0.5941,0.6235 0.5941,0.6321 0.5941,0.6407 0.5969,0.6488 0.6089,0.6551 0.6173,0.6621 0.6216,0.6698 0.63,0.6768 0.63,0.6854 0.6245,0.693 0.6152,0.6998 0.6072,0.7068 0.6025,0.7145 0.5983,0.7223 0.5941,0.7301 0.5941,0.7387 0.5974,0.7467 0.6004,0.7547 0.6058,0.7622 0.6131,0.7694 0.6171,0.7773 0.6173,0.7858 0.6225,0.7934 0.6398,0.7949 0.6563,0.7973 0.6681,0.8036 0.6765,0.8106 0.6838,0.8178 0.6934,0.8245 0.7041,0.8311 0.7185,0.8358 0.7315,0.8317 0.7357,0.8239 0.7389,0.8159 0.7442,0.8083 0.7484,0.8006 0.7514,0.7925 0.7586,0.7853 0.7658,0.7781 0.7738,0.771 0.778,0.7633 0.778,0.7547 0.778,0.7461 0.7822,0.7383" fill="none" stroke="#ffffff" stroke-width="0.012" stroke-linecap="round" stroke-linejoin="round"/>
  <circle cx="0.1036" cy="0.1895" r="0.012" fill="#e02020"/>
  <text x="0.1216" y="0.1945" fill="#e02020" font-family="Hiragino Sans,Yu Gothic,sans-serif" font-size="0.028" font-weight="bold">S</text>
  <circle cx="0.51" cy="0.47" r="0.012" fill="#e02020"/>
  <text x="0.528" y="0.475" fill="#e02020" font-family="Hiragino Sans,Yu Gothic,sans-serif" font-size="0.028" font-weight="bold">雲隣展望台</text>
  <circle cx="0.46" cy="0.525" r="0.012" fill="#e02020"/>
  <text x="0.47800000000000004" y="0.53" fill="#e02020" font-family="Hiragino Sans,Yu Gothic,sans-serif" font-size="0.028" font-weight="bold">箕面大滝</text>
  <circle cx="0.585" cy="0.655" r="0.012" fill="#e02020"/>
  <text x="0.603" y="0.66" fill="#e02020" font-family="Hiragino Sans,Yu Gothic,sans-serif" font-size="0.028" font-weight="bold">風呂谷口</text>
  <circle cx="0.7822" cy="0.7383" r="0.012" fill="#e02020"/>
  <text x="0.8002" y="0.7433" fill="#e02020" font-family="Hiragino Sans,Yu Gothic,sans-serif" font-size="0.028" font-weight="bold">F</text>
</svg>
