<?xml version="1.0" encoding="UTF-8"?>
<svg xmlns="http://www.w3.org/2000/svg" viewBox="0 0 1 1" preserveAspectRatio="xMidYMid meet">
  <defs>
    <pattern id="chk-shigisan" width="0.04" height="0.04" patternUnits="userSpaceOnUse">
      <rect width="0.04" height="0.04" fill="#dcdcdc"/>
      <rect width="0.02" height="0.02" fill="#efefef"/>
      <rect x="0.02" y="0.02" width="0.02" height="0.02" fill="#efefef"/>
    </pattern>
  </defs>
  <rect width="1" height="1" fill="url(#chk-shigisan)"/>
  <text x="0.03" y="0.05" fill="#555" font-family="JetBrains Mono,monospace" font-size="0.035" font-weight="bold">信貴山</text>
  <polyline points="0.2389,0.833 0.2333,0.8265 0.2263,0.8203 0.2379,0.8149 0.2513,0.8115 0.2659,0.8096 0.2789,0.8057 0.2875,0.7998 0.2932,0.7933 0.296,0.7862 0.296,0.7787 0.296,0.7711 0.2927,0.7641 0.2841,0.7582 0.2812,0.7512 0.2812,0.7436 0.2812,0.736 0.2812,0.7284 0.2812,0.7208 0.2812,0.7132 0.277,0.7065 0.2727,0.6997 0.2727,0.6921 0.2773,0.6854 0.2895,0.6807 0.3024,0.6768 0.3153,0.6729 0.3283,0.6689 0.3416,0.6655 0.3556,0.6629 0.3685,0.6589 0.3817,0.6553 0.3963,0.6533 0.411,0.6514 0.4274,0.6514 0.4421,0.6494 0.4555,0.646 0.4683,0.6421 0.4778,0.6363 0.4826,0.6296 0.4863,0.6227 0.4861,0.6152 0.4745,0.6098 0.4629,0.6044 0.4501,0.6005 0.4384,0.5951 0.4268,0.5897 0.4207,0.5833 0.4228,0.5761 0.424,0.5688 0.4271,0.5618 0.4271,0.5542 0.4249,0.547 0.4249,0.5394 0.4249,0.5319 0.4357,0.5264 0.4521,0.5264 0.4663,0.5239 0.4779,0.5186 0.492,0.5159 0.4989,0.5097 0.4889,0.5051 0.4803,0.4992 0.4799,0.4917 0.4757,0.4849 0.4757,0.4773 0.4715,0.4705 0.4672,0.4638 0.4566,0.46 0.4419,0.458 0.4266,0.4568 0.4137,0.4528 0.4051,0.4469 0.3965,0.441 0.3911,0.4344 0.3882,0.4274 0.3869,0.42 0.3869,0.4125 0.3975,0.4069 0.3975,0.3993 0.4022,0.3936 0.4186,0.3936 0.4341,0.3945 0.4505,0.3945 0.467,0.3945 0.4805,0.3977 0.4921,0.4031 0.505,0.4071 0.5191,0.4097 0.535,0.4101 0.5436,0.4042 0.5497,0.3977 0.546,0.3909 0.5331,0.3869 0.5203,0.3829 0.5074,0.3789 0.5011,0.3726 0.5074,0.3662 0.5161,0.3603 0.5277,0.3549 0.5393,0.3495 0.5455,0.3431 0.5419,0.3362 0.5307,0.3308 0.5267,0.3241 0.5389,0.3193 0.5518,0.3154 0.5653,0.3121 0.5769,0.3068 0.5898,0.3028 0.6026,0.2988 0.6142,0.2934 0.6228,0.2875 0.6315,0.2816 0.6342,0.2745 0.6397,0.268 0.6469,0.2618 0.6469,0.2542 0.6506,0.2473 0.6563,0.2408 0.6679,0.2354 0.6825,0.2334 0.6961,0.2302 0.7101,0.2276 0.7255,0.2264 0.7411,0.2256 0.7549,0.2226 0.7677,0.2186 0.7793,0.2133 0.7907,0.2078 0.7949,0.2011 0.8052,0.1954 0.8171,0.1904 0.8297,0.1861 0.8383,0.1802 0.8457,0.174 0.8457,0.1664 0.8436,0.1592 0.8307,0.1553 0.8161,0.1533" fill="none" stroke="rgba(50,50,55,0.4)" stroke-width="0.014" stroke-linecap="round" stroke-linejoin="round" transform="translate(0.004,0.006)"/>
  <polyline points="0.2389,0.833 0.2333,0.8265 0.2263,0.8203 0.2379,0.8149 0.2513,0.8115 0.2659,0.8096 0.2789,0.8057 0.2875,0.7998 0.2932,0.7933 0.296,0.7862 0.296,0.7787 0.296,0.7711 0.2927,0.7641 0.2841,0.7582 0.2812,0.7512 0.2812,0.7436 0.2812,0.736 0.2812,0.7284 0.2812,0.7208 0.2812,0.7132 0.277,0.7065 0.2727,0.6997 0.2727,0.6921 0.2773,0.6854 0.2895,0.6807 0.3024,0.6768 0.3153,0.6729 0.3283,0.6689 0.3416,0.6655 0.3556,0.6629 0.3685,0.6589 0.3817,0.6553 0.3963,0.6533 0.411,0.6514 0.4274,0.6514 0.4421,0.6494 0.4555,0.646 0.4683,0.6421 0.4778,0.6363 0.4826,0.6296 0.4863,0.6227 0.4861,0.6152 0.4745,0.6098 0.4629,0.6044 0.4501,0.6005 0.4384,0.5951 0.4268,0.5897 0.4207,0.5833 0.4228,0.5761 0.424,0.5688 0.4271,0.5618 0.4271,0.5542 0.4249,0.547 0.4249,0.5394 0.4249,0.5319 0.4357,0.5264 0.4521,0.5264 0.4663,0.5239 0.4779,0.5186 0.492,0.5159 0.4989,0.5097 0.4889,0.5051 0.4803,0.4992 0.4799,0.4917 0.4757,0.4849 0.4757,0.4773 0.4715,0.4705 0.4672,0.4638 0.4566,0.46 0.4419,0.458 0.4266,0.4568 0.4137,0.4528 0.4051,0.4469 0.3965,0.441 0.3911,0.4344 0.3882,0.4274 0.3869,0.42 0.3869,0.4125 0.3975,0.4069 0.3975,0.3993 0.4022,0.3936 0.4186,0.3936 0.4341,0.3945 0.4505,0.3945 0.467,0.3945 0.4805,0.3977 0.4921,0.4031 0.505,0.4071 0.5191,0.4097 0.535,0.4101 0.5436,0.4042 0.5497,0.3977 0.546,0.3909 0.5331,0.3869 0.5203,0.3829 0.5074,0.3789 0.5011,0.3726 0.5074,0.3662 0.5161,0.3603 0.5277,0.3549 0.5393,0.3495 0.5455,0.3431 0.5419,0.3362 0.5307,0.3308 0.5267,0.3241 0.5389,0.3193 0.5518,0.3154 0.5653,0.3121 0.5769,0.3068 0.5898,0.3028 0.6026,0.2988 0.6142,0.2934 0.6228,0.2875 0.6315,0.2816 0.6342,0.2745 0.6397,0.268 0.6469,0.2618 0.6469,0.2542 0.6506,0.2473 0.6563,0.2408 0.6679,0.2354 0.6825,0.2334 0.6961,0.2302 0.7101,0.2276 0.7255,0.2264 0.7411,0.2256 0.7549,0.2226 0.7677,0.2186 0.7793,0.2133 0.7907,0.2078 0.7949,0.2011 0.8052,0.1954 0.8171,0.1904 0.8297,0.1861 0.8383,0.1802 0.8457,0.174 0.8457,0.1664 0.8436,0.1592 0.8307,0.1553 0.8161,0.1533" fill="none" stroke="#ffffff" stroke-width="0.012" stroke-linecap="round" stroke-linejoin="round"/>
  <circle cx="0.2389" cy="0.833" r="0.012" fill="#e02020"/>
  <text x="0.2569" y="0.838" fill="#e02020" font-family="Hiragino Sans,Yu Gothic,sans-serif" font-size="0.028" font-weight="bold">S</text>
  <circle cx="0.455" cy="0.395" r="0.012" fill="#e02020"/>
  <text x="0.47300000000000003" y="0.4" fill="#e02020" font-family="Hiragino Sans,Yu Gothic,sans-serif" font-size="0.028" font-weight="bold">鳴川峠</text>
  <circle cx="0.36" cy="0.755" r="0.012" fill="#e02020"/>
  <text x="0.378" y="0.76" fill="#e02020" font-family="Hiragino Sans,Yu Gothic,sans-serif" font-size="0.028" font-weight="bold">十三峠</text>
  <circle cx="0.8161" cy="0.1533" r="0.012" fill="#e02020"/>
  <text x="0.8341000000000001" y="0.1583" fill="#e02020" font-family="Hiragino Sans,Yu Gothic,sans-serif" font-size="0.028" font-weight="bold">F</text>
</svg>
