<?xml version="1.0"?>
<svg xmlns="http://www.w3.org/2000/svg" width="473" height="1024" viewBox="0 0 473 1024">
  <image href="../assets/hanna-up-map.png" width="473" height="1024" opacity="0.85"/>
  <polyline points="82,520 81,520 80,520 79,520 78,520 77,520 76,520 75,520 74,520 73,520 72,520 71,521 70,522 69,523 68,524 69,523 70,523 71,523 72,523 73,523 74,523 75,523 76,524 77,525 78,526 79,527 80,528 81,529 82,530 83,531 84,532 85,533 86,534 86,535 87,535 88,535 89,535 90,535 91,535 92,535 93,535 94,536 95,537 96,538 97,539 98,540 99,541 100,542 100,543 100,544 101,545 102,546 103,547 104,548 104,549 105,549 106,549 107,549 108,550 109,551 110,552 111,553 112,554 113,555 114,556 115,557 116,558 117,559 118,560 118,561 119,561 120,561 121,561 122,561 123,561 124,562 125,563 126,564 127,565 128,566 129,567 130,568 131,569 132,570 133,571 134,572 135,573 136,574 137,575 138,576 139,577 140,578 140,579 141,579 142,579 143,579 144,579 145,579 146,580 147,581 148,582 149,583 150,584 151,585 152,586 153,587 154,588 155,589 156,590 157,591 158,592 159,593 160,594 161,594 160,594 159,593 159,592 159,593 160,594 161,595 162,596 163,596 164,596 165,597 166,598 167,599 168,600 169,601 170,602 171,603 172,604 173,604 174,604 175,605 176,606 177,607 178,608 179,608 180,608 181,609 182,610 183,611 184,612 185,612 186,612 187,613 188,614 189,615 190,616 191,617 192,618 193,619 194,620 195,621 196,622 197,622 198,622 199,623 200,624 201,625 202,626 203,626 204,626 205,627 206,628 207,629 208,630 209,630 210,630 211,631 212,632 213,632 214,632 215,633 216,634 217,634 218,634 219,635 220,636 221,636 222,636 223,637 224,638 225,638 226,638 227,639 228,640 229,641 230,642 231,643 232,644 233,644 234,644 235,645 236,646 237,647 238,648 239,649 240,650 241,650 242,650 243,651 244,652 245,653 246,654 247,655 248,656 249,656 250,656 251,657 252,658 253,659 254,660 255,661 256,662 257,662 258,662 259,663 260,664 261,665 262,666 263,666 264,666 265,667 266,668 267,669 268,670 269,670 270,670 271,670 272,670 273,671 274,672 275,672 276,672 277,672 278,672 279,673 280,674 281,674 282,674 283,675 284,676 285,677 286,678 287,679 288,680 289,681 290,682 291,683 292,684 293,685 294,686 295,687 296,688 297,689 298,690 299,691 300,692 301,693 302,694 303,694 304,694 305,694 306,694 307,694 308,694 309,694 310,694 311,694 312,694 313,694 314,694 315,694 316,694 317,694 318,694 319,694 320,694 321,694 322,694 323,694 324,694 325,694 326,694 327,694 328,694 329,694 330,694 331,694 332,693 333,692 334,691 334,690 334,689 334,688 334,687 334,686 334,685 334,684 334,683 334,682 333,681 332,680 331,679 330,678 329,677 328,676 327,675 326,674 325,673 324,672 323,671 322,670 321,669 320,668 319,667 318,667 317,667 316,666 315,665 314,664 313,663 312,663 311,663 310,663 309,663 308,662 307,661 306,661 305,661 304,661 303,661 302,660 301,659 300,659 299,659 298,658 297,657 296,657 295,657 294,657 293,657 292,657 291,657 290,656 289,655 288,655 287,655 286,655 285,655 284,655 283,655 282,655 281,655 280,655 279,655 278,654 277,653 276,653 275,653 274,653 273,653 272,652 271,651 270,651 269,651 268,650 267,649 266,648 265,647 264,647 263,647 262,646 261,645 260,645 259,645 258,644 257,643 256,642 255,641 254,641 253,641 252,640 251,639 250,638 249,637 248,636 247,635 246,634 245,633 244,633 243,633 242,632 241,631 240,631 239,631 238,630 237,629 236,629 235,629 234,628 233,627 232,627 231,627 230,626 229,625 228,624 227,623 226,623 225,623 224,622 223,621 222,621 221,621 220,620 219,619 218,619 217,619 216,618 215,617 214,617 213,617 212,616 211,615 210,615 209,615 208,614 207,613 206,612 205,611 204,610 203,609 202,608 201,607 200,606 199,605 198,604 197,603 196,602 195,601 194,600 193,599 193,598 193,597 193,596 193,595 192,594 191,593 191,592 191,591 191,590 191,589 190,588 189,587 189,586 189,585 188,584 187,583 187,582 187,581 186,580 185,579 185,578 185,577 185,576 185,575 184,574 183,573 183,572 182,571 182,570 182,569 182,568 182,567 182,566 182,565 182,564 182,563 182,562 182,561 183,560 183,559 183,558 183,557 183,556 183,555 183,554 183,553 183,552 183,551 182,550 183,550 184,550 185,550 186,550 187,550 188,550 189,551 190,552 191,552 192,552 193,553 194,554 195,554 196,554 197,555 198,556 198,557 198,558 199,559 200,560 200,561 200,562 201,563 202,564 203,565 204,566 204,567 204,568 205,569 206,570 207,571 208,572 209,573 210,574 211,575 212,576 213,576 213,577 213,578 213,579 214,580 215,581 216,582 217,583 218,584 219,585 220,586 221,587 222,588 223,588 224,588 225,589 226,590 227,590 228,590 229,591 230,592 231,593 232,594 233,594 234,594 235,594 235,595 236,596 237,596 238,596 239,596 240,596 241,596 242,596 243,596 244,596 245,596 246,596 247,596 248,596 249,596 250,596 251,596 252,596 253,596 254,596 255,596 256,596 257,596 258,596 259,596 260,596 261,596 262,596 263,596 264,596 265,596 266,596 267,596 268,596 269,596 270,596 271,596 272,596 273,596 274,596 275,596 276,596 277,596 278,596 279,596 280,596 281,596 282,596 283,596 284,596 283,596 282,596 281,596 280,596 279,596 278,596 277,596 276,596 275,596 274,596 273,597 272,598 271,599 270,599 269,599 268,599 267,599 266,599 267,599 268,599 269,599 270,599 271,599 272,599 273,599 274,599 275,599 276,599 277,599 278,599 279,599 280,599 281,599 282,599 283,599 284,599 285,599 286,599 287,598 288,597 289,597 290,597 291,597 292,597 293,597 294,597 295,597 296,597 297,597 298,597 299,597 300,597 301,597 302,597 303,597 304,597 305,597 306,597 307,597 308,597 309,597 310,598 311,599 312,600 311,599 310,599 309,599 308,598 307,597 306,597 305,597 304,597 303,597 302,597 301,597 300,597 299,597 298,597 297,597 296,597 295,597 294,597 293,597 292,597 291,597 290,597 289,597 288,597 287,597 286,597 285,597 284,597 283,597 282,597 281,597 280,597 279,597 278,597 277,597 276,597 275,597 274,597 273,597 272,597 271,597 270,597 269,597 268,597 267,597 266,597 265,597 264,597 263,597 262,597 261,597 260,597 259,597 258,597 257,597 256,597 255,597 254,597 253,597 252,597 251,597 250,597 249,597 248,597 247,597 246,597 245,597 244,597 243,597 242,597 241,597 240,597 239,597 238,597 237,597 236,597 235,597 234,597 233,597 232,596 231,595 230,595 229,595 228,594 227,593 226,592 225,591 224,590 223,589 222,588 221,587 220,586 219,585 218,584 217,583 216,582 215,581 214,580 213,579 213,578 213,577 212,576 211,575 210,574 209,573 209,572 209,571 208,570 207,569 207,568 207,567 206,566 205,565 204,564 203,563 202,562 201,561 200,560 199,559 198,558 197,557 196,557 195,557 194,556 193,555 192,555 191,555 190,554 189,553 188,553 187,553 186,553 185,553 184,553 183,554 183,555 183,556 183,557 183,558 183,559 183,560 183,561 183,562 183,563 183,564 183,565 183,566 183,567 183,568 183,569 183,570 183,571 183,572 183,573 183,574 183,575 183,576 183,577 183,578 183,579 184,580 184,581 184,582 185,583 186,584 186,585 186,586 187,587 188,588 188,589 188,590 188,591 188,592 189,593 190,594 190,595 190,596 191,597 192,598 193,599 194,600 195,601 196,602 197,603 198,604 199,605 200,606 201,607 202,608 203,608 204,608 205,609 206,610 207,611 208,612 209,612 210,612 211,613 212,614 213,614 214,614 215,615 216,616 217,616 218,616 219,617 220,618 221,618 222,618 223,619 224,620 225,620 226,620 227,621 228,622 229,623 230,624 231,624 232,624 233,625 234,626 235,626 236,626 237,627 238,628 239,628 240,628 241,629 242,630 243,631 244,632 245,633 246,634 247,635 248,636 249,637 250,638 251,638 252,638 253,639 254,640 255,640 256,640 257,641 258,642 259,642 260,642 261,643 262,644 263,644 264,644 265,645 266,646 267,646 267,647 268,648 269,648 270,648 271,649 272,650 273,650 274,650 275,651 276,652 277,652 278,652 279,652 280,652 281,652 282,652 283,652 284,652 285,652 286,652 287,653 288,654 289,654 290,654 291,654 292,654 293,654 294,654 295,654 296,654 297,655 298,656 299,656 300,656 301,656 302,656 303,657 304,658 305,658 306,658 307,659 308,660 309,660 310,660 311,661 312,662 313,662 314,662 315,663 316,664 317,665 318,666 319,667 320,668 321,669 322,670 323,671 324,672 325,673 326,674 327,675 328,676 329,677 330,678 331,679 332,680 332,681 332,682 333,683 334,684 334,685 334,686 334,687 334,688 334,689 334,690 334,691 333,692 332,692 331,692 330,692 329,692 328,693 327,694 326,694 325,694 324,694 323,694 322,694 321,694 320,694 319,694 318,694 317,694 316,694 315,694 314,694 313,694 312,694 311,694 310,694 309,694 308,694 307,694 306,694 305,694 304,694 303,694 302,694 301,693 300,692 299,691 298,690 297,689 297,688 297,687 296,686 295,685 294,684 293,683 292,682 291,681 290,680 289,679 289,678 289,679 289,680 289,681 290,682 291,683 292,684 293,685 294,686 295,687 296,688 297,689 298,690 299,691 300,692 301,693 302,694 303,694 304,694 305,694 306,694 307,694 308,694 309,694 310,694 311,694 312,694 313,694 314,694 315,694 316,694 317,694 318,694 319,694 320,694 321,694 322,694 323,694 324,694 325,694 326,694 327,694 328,694 329,694 330,694 331,694 332,693 333,692 334,691 334,690 334,689 334,688 334,687 334,686 334,685 334,684 334,683 334,682 334,681 334,680 333,679 333,678 333,677 332,676 331,675 330,674 329,673 329,672 328,672 327,672 326,672 325,672 324,672 323,671 322,670 321,669 320,668 319,667 318,667 317,667 316,666 315,665 314,664 313,663 312,663 311,663 310,663 309,663 308,662 307,661 306,661 305,661 304,661 303,661 302,660 301,659 300,659 299,659 298,658 297,657 296,657 295,657 294,657 293,657 292,657 291,657 290,656 289,655 288,655 287,655 286,655 285,655 284,655 283,655 282,655 281,655 280,655 279,655 278,654 277,653 276,653 275,653 274,653 273,653 272,652 271,651 270,651 269,651 268,650 267,649 266,648 265,647 264,647 263,647 262,646 261,645 260,645 259,645 258,644 257,643 256,642 255,641 254,641 253,641 252,640 251,639 250,638 249,637 248,636 247,635 246,634 245,633 244,633 243,633 242,632 241,631 240,631 239,631 238,630 237,629 236,629 235,629 234,628 233,627 232,627 231,627 230,626 229,625 228,624 227,623 226,623 225,623 224,622 223,621 222,621 221,621 220,620 219,619 218,619 217,619 216,618 215,617 214,617 213,617 212,616 211,615 210,615 209,615 208,614 207,613 206,612 205,611 204,610 203,609 202,608 201,607 200,606 199,605 198,604 197,603 196,602 195,601 194,600 193,599 193,598 193,597 193,596 193,595 192,594 191,593 191,592 191,591 191,590 191,589 190,588 189,587 189,586 189,585 188,584 187,583 187,582 187,581 186,580 185,579 185,578 185,577 185,576 185,575 184,574 183,573 183,572 183,571 183,570 183,569 183,568 183,567 183,566 183,565 183,564 183,563 183,562 183,561 183,560 183,559 183,558 183,557 183,556 183,555 183,554 184,553 185,553 186,553 187,553 188,553 189,553 190,553 191,553 192,553 193,553 194,554 195,555 196,556 197,557 198,558 199,559 200,560 200,561 200,562 201,563 202,564 203,565 204,566 204,567 204,568 205,569 206,570 206,571 206,572 207,573 208,574 209,575 210,576 211,577 212,578 213,579 214,580 215,581 216,582 217,583 218,584 219,585 220,586 221,587 222,588 223,588 224,588 225,589 226,590 227,590 228,590 229,591 230,592 231,593 232,594 233,594 234,594 235,595 236,596 237,596 238,596 239,596 240,596 241,596 242,596 243,596 244,596 245,596 246,596 247,596 248,596 249,596 250,596 251,596 252,596 253,596 254,596 255,596 256,596 257,596 258,596 259,596 260,596 261,596 262,596 263,596 264,596 265,596 266,596 267,596 268,596 269,596 270,596 271,596 272,596 273,596 274,596 275,596 276,596 277,596 278,596 279,596 280,596 281,596 282,596 283,596 284,596 285,596 286,596 287,596 288,596 289,596 290,596 291,596 292,596 293,596 294,596 295,596 296,596 297,596 298,596 299,596 300,596 301,596 302,596 303,596 304,596 305,596 306,596 307,596 308,596 309,597 310,598 311,599 312,600 312,601 312,602 313,603 314,604 314,605 314,606 315,607 316,608 317,609 318,610 319,611 320,612 321,613 322,614 322,615 322,616 322,617 322,618 322,619 322,620 322,621 322,622 322,623 322,624 322,625 322,626 322,627 322,628 323,629 324,630 324,631 324,632 324,633 324,634 324,635 324,636 324,637 324,638 324,639 324,640 324,641 324,642 324,643 324,644 324,645 323,646 323,647 323,648 323,649 323,650 323,651 323,652 323,653 324,654 325,655 326,656 327,656 328,656 329,656 330,656 331,656 332,656 333,657 334,658 335,659 336,660 336,661 336,660 335,659 334,659 333,659 332,659 331,659 330,659 329,659 328,659 327,659 326,659 327,659 328,659 328,658 327,657 326,656 325,655 324,654 323,654 322,654 321,654 320,654 320,653 320,652 320,651 320,650 320,649 320,648 320,647 321,646 322,645 322,644 322,643 322,642 322,641 322,640 322,639 322,638 322,637 322,636 322,635 322,634 322,633 323,632 324,631 324,630 324,629 324,628 324,627 324,626 324,625 324,624 324,623 324,622 324,621 324,620 324,619 324,618 324,617 324,616 323,615 323,614 323,613 322,612 321,611 320,610 319,609 319,608 319,607 318,606 317,605 316,604 315,603 314,602 313,601 312,600 311,599 310,599 309,599 308,598 307,597 306,597 305,597 304,597 303,597 302,597 301,597 300,597 299,597 298,597 297,597 296,597 295,597 294,597 293,597 292,597 291,597 290,597 289,597 288,597 287,597 286,597 285,597 284,597 283,597 282,597 281,597 280,597 279,597 278,597 277,597 276,597 275,597 274,597 273,597 272,597 271,597 270,597 269,597 268,597 267,597 266,597 265,597 264,597 263,597 262,597 261,597 260,597 259,597 258,597 257,597 256,597 255,597 254,597 253,597 252,597 251,597 250,597 249,597 248,597 247,597 246,597 245,597 244,597 243,597 242,597 241,597 240,597 239,597 238,597 237,597 236,597 235,597 234,597 233,597 232,596 231,595 230,595 229,595 228,594 227,593 226,592 225,591 224,590 223,589 222,588 221,587 220,586 219,585 218,584 217,583 216,582 215,581 214,580 213,579 213,578 213,577 212,576 211,575 210,574 209,573 209,572 209,571 208,570 207,569 207,568 207,567 206,566 205,565 204,564 203,563 202,562 201,561 200,560 199,559 198,558 197,557 196,557 195,557 194,556 193,555 192,555 191,555 190,554 189,553 188,553 187,553 186,553 185,553 184,553 183,554 183,555 183,556 183,557 183,558 183,559 183,560 183,561 183,562 183,563 183,564 183,565 183,566 183,567 183,568 183,569 183,570 183,571 183,572 183,573 183,574 183,575 183,576 183,577 183,578 183,579 184,580 184,581 184,582 185,583 186,584 186,585 186,586 187,587 188,588 188,589 188,590 188,591 188,592 189,593 190,594 190,595 190,596 191,597 192,598 193,599 194,600 195,601 196,602 197,603 198,604 199,605 200,606 201,607 202,608 203,608 204,608 205,609 206,610 207,611 208,612 209,612 210,612 211,613 212,614 213,614 214,614 215,615 216,616 217,616 218,616 219,617 220,618 221,618 222,618 223,619 224,620 225,620 226,620 227,621 228,622 229,623 230,624 231,624 232,624 233,625 234,626 235,626 236,626 237,627 238,628 239,628 240,628 241,629 242,630 243,631 244,632 245,633 246,634 247,635 248,636 249,637 250,638 251,638 252,638 253,639 254,640 255,640 256,640 257,641 258,642 259,642 260,642 261,643 262,644 263,644 264,644 265,645 266,646 267,647 268,648 269,648 270,648 271,649 272,650 273,650 274,650 275,651 276,652 277,652 278,652 279,652 280,652 281,652 282,652 283,652 284,652 285,652 286,652 287,653 288,654 289,654 290,654 291,654 292,654 293,654 294,654 295,654 296,654 297,655 298,656 299,656 300,656 301,656 302,656 303,657 304,658 305,658 306,658 307,659 308,660 309,660 310,660 311,661 312,662 313,662 312,662 311,661 310,661 309,662 308,663 308,662 307,661 306,661 305,661 304,661 303,661 302,660 301,659 300,659 299,659 298,658 297,657 296,657 295,657 294,657 293,657 292,657 291,657 290,657 290,656 289,655 288,655 287,655 286,655 285,655 284,655 283,655 282,655 281,655 280,655 279,655 278,654 277,653 276,653 275,653 274,653 273,653 272,652 271,651 270,651 269,651 268,650 267,649 266,648 265,647 264,647 263,647 262,647 262,646 261,645 260,645 259,645 258,644 257,643 256,642 255,641 254,641 253,641 252,640 251,639 250,638 249,637 248,636 247,635 246,634 245,633 244,633 243,633 242,632 241,631 240,631 239,631 238,631 238,630 237,629 236,629 235,629 234,628 233,627 232,627 231,627 230,626 229,625 228,624 227,623 226,623 225,623 224,622 223,621 222,621 221,621 220,620 219,619 218,619 217,619 216,618 215,617 214,617 213,617 212,616 211,615 210,615 209,615 208,614 207,613 206,612 205,611 204,611 203,610 202,609 201,608 200,607 199,606 199,605 198,604 197,603 196,602 195,601 194,600 193,599 193,598 193,597 193,596 193,595 192,594 191,593 191,592 191,591 191,590 191,589 190,588 189,587 189,586 188,585 187,584 186,583 185,582 185,581 185,580 185,579 185,578 185,577 185,576 185,575 184,574 183,573 183,572 183,571 183,570 183,569 183,568 183,567 183,566 183,565 183,564 183,563 183,562 183,561 183,560 183,559 183,558 183,557 183,556 183,555 183,554 184,553 185,553 186,553 187,553 188,553 189,553 190,553 191,553 192,553 193,553 194,554 195,554 196,554 197,554 197,555 197,556 197,557 198,558 199,559 200,560 200,561 200,562 201,563 202,564 203,565 204,566 204,567 204,568 205,569 206,570 207,571 208,572 209,573 210,574 211,575 212,576 213,576 213,577 213,578 213,579 214,580 215,581 216,582 217,583 218,584 219,585 220,586 221,587 222,588 223,588 224,588 225,589 226,590 227,590 228,590 229,591 230,592 231,593 232,594 233,594 234,594 235,595 236,596 237,596 238,596 239,596 240,596 241,596 242,596 243,596 244,596 245,596 246,596 247,596 248,596 249,596 250,596 251,596 252,596 253,596 254,596 255,596 256,596 257,596 258,596 259,596 260,596 261,596 262,596 263,596 264,596 265,596 266,596 267,596 268,596 269,596 270,596 271,596 272,596 273,596 274,596 275,596 276,596 277,596 278,596 279,596 280,596 281,596 282,596 283,596 284,596 285,596 286,596 287,596 288,596 289,596 290,596 291,596 292,596 293,596 294,596 295,596 296,596 297,596 298,596 299,596 300,596 301,596 302,596 303,596 304,596 305,596 306,596 307,596 308,596 309,597 310,598 311,599 312,600 312,601 312,602 313,603 314,604 315,605 316,606 316,607 316,608 317,609 318,610 319,611 320,612 321,613 322,614 322,615 322,616 322,617 322,618 322,619 322,620 322,621 322,622 322,623 322,624 322,625 322,626 322,627 322,628 323,629 324,630 324,631 324,632 323,633 323,634 323,635 323,636 323,637 323,638 323,639 323,640 323,641 323,642 323,643 323,644 323,645 323,646 323,647 323,648 323,649 323,650 323,651 323,652 323,653 323,654 323,655 323,656 322,657 323,657 324,657 325,657 326,658 326,659 326,658 326,657 326,656 325,655 324,654 323,653 323,652 323,651 323,650 323,649 323,648 323,647 323,646 323,645 323,644 323,643 323,642 323,641 323,640 323,639 323,638 323,637 323,636 323,635 323,634 323,633 323,632 324,631 324,630 324,629 324,628 324,627 324,626 324,625 324,624 324,623 324,622 324,621 324,620 324,619 324,618 324,617 324,616 323,615 323,614 323,613 322,612 321,611 320,610 319,609 319,608 319,607 318,606 317,605 316,604 315,603 314,602 313,601 312,600 311,599 310,599 309,599 308,598 307,597 306,597 305,597 304,597 303,597 302,597 301,597 300,597 299,597 298,597 297,597 296,597 295,597 294,597 293,597 292,597 291,597 290,597 289,597 288,597 287,597 286,597 285,597 284,597 283,597 282,597 281,597 280,597 279,597 278,597 277,597 276,597 275,597 274,597 273,597 272,597 271,597 270,597 269,597 268,597 267,597 266,597 265,597 264,597 263,597 262,597 261,597 260,597 259,597 258,597 257,597 256,597 255,597 254,597 253,597 252,597 251,597 250,597 249,597 248,597 247,597 246,597 245,597 244,597 243,597 242,597 241,597 240,597 239,597 238,597 237,597 236,597 235,597 234,597 233,597 232,596 231,595 230,595 229,595 228,594 227,593 226,592 225,591 224,590 223,589 222,588 221,587 220,586 219,585 218,584 217,583 216,582 215,581 214,580 213,579 213,578 213,577 212,576 211,575 210,574 209,573 209,572 209,571 208,570 207,569 207,568 207,567 206,566 205,565 204,564 203,563 202,562 201,561 200,560 199,559 198,558 197,557 196,557 195,557 194,556 193,555 192,555 191,555 190,554 189,553 188,553 187,553 186,553 185,553 184,553 183,554 183,555 183,556 183,557 183,558 183,559 183,560 183,561 183,562 183,563 183,564 183,565 183,566 183,567 183,568 183,569 183,570 183,571 183,572 183,573 183,574 183,575 183,576 183,577 183,578 183,579 184,580 184,581 184,582 185,583 186,584 186,585 186,586 187,587 188,588 188,589 188,590 188,591 188,592 189,593 190,594 190,595 190,596 191,597 192,598 193,599 194,600 195,601 196,602 197,603 198,604 199,605 200,606 201,607 202,608 203,608 204,608 205,609 206,610 207,611 208,612 209,612 210,612 211,613 212,614 213,614 214,614 215,615 216,616 217,616 218,616 219,617 220,618 221,618 222,618 223,619 224,620 225,620 226,620 227,621 228,622 229,623 230,624 231,624 232,624 233,625 234,626 235,626 236,626 237,627 238,628 239,628 240,628 241,629 242,630 243,631 244,632 245,633 246,634 247,635 248,636 249,637 250,638 251,638 252,638 253,639 254,640 255,640 256,640 257,641 258,642 259,642 260,642 261,643 262,644 263,644 264,644 265,645 266,646 267,647 268,648 269,648 270,648 271,649 272,650 273,650 274,650 275,651 276,652 277,652 278,652 279,652 280,652 281,652 282,652 283,652 284,652 285,652 286,652 287,653 288,654 289,654 290,654 291,654 292,654 293,654 294,654 295,654 296,654 297,655 298,656 299,656 300,656 301,656 302,656 303,657 304,658 305,658 306,658 307,659 308,660 309,660 310,660 311,661 312,662 313,662 314,662 315,662 316,662 317,663 318,664 319,665 320,666 321,666 322,666 323,667 324,668 325,669 326,670 327,671 328,672 329,673 330,674 331,674 331,675 332,676 331,675 331,674 330,674 329,674 328,674 327,674 326,674 325,673 324,672 323,671 322,670 321,669 320,668 319,667 318,667 317,667 316,666 315,665 314,664 313,663 312,663 311,663 310,663 309,663 308,662 307,661 306,661 305,661 304,661 303,661 302,660 301,659 300,659 299,659 298,658 297,657 296,657 295,657 294,657 293,657 292,657 291,657 290,656 289,655 288,655 287,655 286,655 285,655 284,655 283,655 282,655 281,655 280,655 279,655 278,654 277,653 276,653 275,653 274,653 273,653 272,652 271,651 270,651 269,651 268,650 267,649 266,648 265,647 264,647 263,647 262,646 261,645 260,645 259,645 258,644 257,643 256,642 255,641 254,641 253,641 252,640 251,639 250,638 249,637 248,636 247,635 246,634 245,633 244,633 243,633 242,632 241,631 240,631 239,631 238,630 237,629 236,629 235,629 234,628 233,627 232,627 231,627 230,626 229,625 228,624 227,623 226,623 225,623 224,622 223,621 222,621 221,621 220,620 219,619 218,619 217,619 216,618 215,617 214,617 213,617 212,616 211,615 210,615 209,615 208,614 207,613 206,612 205,611 204,610 203,609 202,608 201,607 200,606 199,605 198,604 197,603 196,602 195,601 194,600 193,599 193,598 193,597 193,596 193,595 192,594 191,593 191,592 191,591 191,590 191,589 190,588 189,587 189,586 189,585 188,584 187,583 187,582 187,581 186,580 185,579 185,578 185,577 185,576 185,575 184,574 183,573 183,572 183,571 183,570 183,569 183,568 183,567 183,566 183,565 183,564 183,563 183,562 183,561 183,560 183,559 183,558 183,557 183,556 183,555 183,554 184,553 185,553 186,553 187,553 188,553 189,553 190,553 191,553 192,553 193,553 194,554 195,555 196,556 197,557 198,558 199,559 200,560 200,561 200,562 201,563 202,564 203,565 204,566 204,567 204,568 205,569 206,570 206,571 206,572 207,573 208,574 209,575 210,576 211,577 212,578 213,579 214,580 215,581 216,582 217,583 218,584 219,585 220,586 221,587 222,588 223,588 224,588 225,589 226,590 227,590 228,590 229,591 230,592 231,593 232,594 233,594 234,594 235,595 236,596 237,596 238,596 239,596 240,596 241,596 242,596 243,596 244,596 245,596 246,596 247,596 248,596 249,596 250,596 251,596 252,596 253,596 254,596 255,596 256,596 257,596 258,596 259,596 260,596 261,596 262,596 263,596 264,596 265,596 266,596 267,596 268,596 269,596 270,596 271,596 272,596 273,596 274,596 275,596 276,596 277,596 278,596 279,596 280,596 281,596 282,596 283,596 284,596 285,596 286,596 287,596 288,596 289,596 290,596 291,596 292,596 293,596 294,596 295,596 296,596 297,596 298,596 299,596 300,596 301,596 302,596 303,596 304,596 305,596 306,596 307,596 308,596 309,597 310,598 311,599 312,600 312,601 312,602 313,603 314,604 314,605 314,606 315,607 316,608 317,609 318,610 319,611 320,612 321,613 322,614 322,615 322,616 322,617 322,618 322,619 322,620 322,621 322,622 322,623 322,624 322,625 322,626 322,627 322,628 323,629 324,630 324,631 324,632 324,633 324,634 324,635 324,636 324,637 324,638 324,639 324,640 324,641 324,642 324,643 324,644 324,645 323,646 323,647 323,648 323,649 323,650 323,651 323,652 323,653 324,654 325,655 326,656 327,656 328,656 329,656 330,656 331,656 332,656 333,657 334,658 335,658 336,658 337,658 338,658 339,658 340,658 341,658 342,658 343,659 344,660 345,661 346,662 346,663 347,663 348,663 349,663 350,663 351,663 352,663 353,663 354,663 355,663 356,663 357,663 358,663 359,664 360,664 361,664 362,664 363,664 364,664 365,664 366,664 367,664 368,664 369,664 370,664 371,664 372,664 373,665 374,666 375,666 376,666 377,666 378,666 379,666 380,666 381,666 382,666 383,666 384,666 385,666 386,666 387,666 388,666 389,666 390,666 391,666 392,666 393,666 394,665 394,664 394,663 394,662 394,661 394,660 394,659 394,658 394,657 394,656 394,655 394,654 394,653 394,652 394,651 394,650 394,649 394,648 394,647 394,646 393,645 392,645 391,645 390,645 389,645 388,645 387,645 386,645 385,645 384,645 383,645 382,645 382,644 381,643 380,643 379,643 378,643 377,643 376,643 375,643 374,642 373,641 372,640 371,639 371,638 370,638 369,638 368,638 367,638 366,638 365,638 364,638 363,638 362,638 361,638 360,638 359,638 358,638 357,637 356,636 355,635 354,634 353,633 352,632 351,631 351,630 351,629 351,628 350,628 349,627 348,626 347,625 346,624 345,623 345,622 345,621 344,620 343,619 343,618 343,617 342,616 341,615 341,614 341,613 341,612 341,611 341,610 341,609 341,608 341,607 341,606 341,605 341,604 341,603 341,602 341,601 341,600 341,599 341,598 341,597 341,596 341,595 341,594 342,593 342,592 342,591 343,590 344,589 344,588 344,587 345,586 346,585 346,584 346,583 346,582 346,581 346,580 346,579 346,578 346,577 347,576 346,576 345,575 345,574 344,574 343,573 343,572 342,572 341,572 340,572 339,572 338,572 337,572 336,572 335,571 334,570 333,569 332,569 331,569 330,568 329,567 328,567 327,567 326,566 325,565 324,565 323,565 322,564 321,563 320,563 319,563 318,563 317,563 316,562 315,561 314,561 313,561 312,561 311,561 310,560 309,559 308,559 307,559 306,559 305,559 304,558 303,557 302,557 301,557 300,556 299,555 298,555 297,555 296,554 295,553 294,553 293,553 292,552 291,551 290,551 289,551 288,550 287,549 286,549 285,549 284,549 283,549 282,548 281,547 280,547 279,547 278,546 277,545 276,544 275,543 274,543 273,543 272,542 271,541 270,541 269,541 268,541 267,541 266,541 265,541 264,541 263,541 262,541 261,541 260,541 259,541 258,541 257,542 256,542 255,542 254,543 253,544 252,544 251,544 250,545 249,546 248,546 247,546 246,547 245,548 244,548 243,548 242,549 241,550 240,550 239,550 238,550 237,550 236,550 235,550 234,550 233,550 232,550 231,549 231,548 231,547 230,546 229,545 229,544 229,543 229,542 229,541 228,540 227,539 226,538 225,537 225,536 225,535 224,534 223,533 223,532 223,531 223,530 223,529 222,528 221,527 221,526 221,525 221,524 221,523 221,522 221,521 220,520 219,519 219,518 219,517 219,516 219,515 219,514 219,513 219,512 219,511 218,510 217,509 217,508 217,507 216,506 215,505 215,504 215,503 214,502 213,501 213,500 213,499 212,498 211,497 210,496 209,495 209,494 209,493 208,492 207,491 207,490 207,489 206,488 205,487 205,486 205,485 205,484 205,483 205,482 205,481 205,480 205,479 205,478 205,477 205,476 205,475 205,474 205,473 205,472 205,471 205,470 205,469 205,468 205,467 205,466 205,465 205,464 205,463 205,462 205,461 205,460 205,459 205,458 205,457 205,456 205,455 205,454 205,453 205,452 205,451 205,450 205,449 205,448 205,447 205,446 205,445 205,444 205,443 205,442 205,441 205,440 205,439 205,438 205,437 205,436 205,435 205,434 205,433 205,432 205,431 205,430 205,429 205,428 205,427 205,426 205,425 205,424 206,423 206,422 206,421 207,420 208,419 209,418 210,417 211,416 212,415 213,414 214,413 215,412 216,411 217,410 218,409 219,409 220,409 221,409 222,409 223,409 224,409 225,409 226,409 227,409 228,409 229,409 230,409 231,409 232,409 233,409 234,410 235,410 236,410 237,410 238,410 239,411 240,412 241,412 242,412 243,412 244,412 245,413 246,414 247,414 248,414 249,414 250,414 251,415 252,416 253,417 254,418 255,418 256,418 257,419 258,420 259,421 260,422 261,423 262,424 263,424 264,424 265,425 266,426 267,427 268,428 269,429 270,430 271,430 272,430 273,431 274,432 275,432 276,432 277,433 278,434 279,435 280,436 281,436 282,436 283,437 284,438 285,439 286,440 287,440 288,440 289,441 290,442 291,442 292,442 293,443 294,444 295,445 296,446 297,447 298,448 299,448 300,448 301,449 302,450 303,450 304,450 305,450 306,450 307,450 308,450 309,451 310,452 311,452 312,452 313,452 314,452 315,453 316,454 317,454 318,454 319,454 320,454 321,455 322,456 323,456 324,456 325,457 326,458 327,458 328,458 329,459 330,460 331,460 332,460 333,461 334,462 335,462 336,462 337,462 338,462 339,463 340,464 341,464 342,464 343,465 344,466 345,466 346,466 347,466 348,466 349,467 350,468 351,468 352,468 353,469 354,470 355,470 356,470 357,471 358,472 359,472 360,472 361,473 362,474 363,475 364,476 365,476 366,476 367,477 368,478 369,479 370,480 371,481 372,482 373,482 374,482 375,483 376,484 377,484 378,484 379,485 380,486 381,487 382,488 383,489 384,490 384,491 385,491 386,491 387,491 388,491 389,491 390,491 391,491 392,491 393,491 394,491 395,491 396,491 397,491 398,491 399,491 400,491 401,490 402,489 403,488 404,487 405,486 406,485 407,484 408,483 409,482 410,481 410,480 410,479 411,478 412,477 413,476 414,475 415,474 416,473 416,472 416,471 417,470 418,469 419,468 420,467 423,466" fill="none" stroke="#00e5ff" stroke-width="3" stroke-linecap="round"/>
</svg>